<?xml version="1.0" encoding="UTF-8"?><svg id="_Шар_1" xmlns="http://www.w3.org/2000/svg" viewBox="0 0 226.77 226.77"><defs><style>.cls-1,.cls-2,.cls-3{stroke-width:0px;}.cls-1,.cls-4,.cls-5,.cls-6{fill:#287fd6;}.cls-2{fill:#fdfefe;}.cls-7{letter-spacing:.1em;}.cls-4{font-size:10.87px;}.cls-4,.cls-5,.cls-6{font-family:DreamAvenue, 'Dream Avenue';}.cls-4,.cls-6{stroke:#287fd6;stroke-miterlimit:10;stroke-width:.28px;}.cls-8{letter-spacing:-.09em;}.cls-9{letter-spacing:.12em;}.cls-10{letter-spacing:.17em;}.cls-3{fill:#ce266b;}.cls-5{font-size:34.37px;}.cls-11{letter-spacing:.07em;}.cls-12{letter-spacing:.11em;}.cls-13{letter-spacing:.16em;}.cls-14{letter-spacing:0em;}.cls-15{letter-spacing:.15em;}.cls-16{letter-spacing:.15em;}.cls-17{letter-spacing:.15em;}.cls-18{letter-spacing:.16em;}.cls-19{letter-spacing:.16em;}.cls-20{letter-spacing:.16em;}.cls-21{letter-spacing:.12em;}.cls-22{letter-spacing:.16em;}.cls-23{letter-spacing:-.05em;}.cls-6{font-size:22.21px;}.cls-24{letter-spacing:.12em;}.cls-25{letter-spacing:-.02em;}.cls-26{letter-spacing:.18em;}.cls-27{letter-spacing:.14em;}.cls-28{letter-spacing:.15em;}.cls-29{letter-spacing:.15em;}.cls-30{letter-spacing:.15em;}.cls-31{letter-spacing:0em;}.cls-32{letter-spacing:.14em;}</style></defs><path class="cls-2" d="M34.26,108.28c.45.4.78.9,1.09,1.41.34.55.33.56.86.23.43-.26.77-.2,1.08.22.1.13.19.26.28.4.12.18.21.51.45.42.29-.12.15-.44.1-.69-.02-.09-.06-.18-.12-.26-.24-.34-.33-.73-.37-1.14-.1-1.05-.56-1.93-1.2-2.76-.25-.33-.44-.35-.72-.04-.54.6-1.09,1.19-1.78,1.63-.97.42-1.9.95-2.9,1.3-.26.09-.2.21-.03.37.35.34.62.74.9,1.13.54.74,1.12,1.46,2.07,1.73.29.08.57.21.81.43.1.09.25.19.39.05.12-.13.02-.27-.05-.4-.22-.39-.58-.63-.99-.72-1.06-.23-1.52-1.05-2-1.88-.19-.33-.12-.48.24-.58.67-.19,1.31-.44,1.89-.84ZM64.08,142.74h0c.97,0,1.94,0,2.91,0,.14,0,.31.05.38-.13.07-.2-.08-.3-.22-.38-.24-.16-.49-.31-.75-.45-.56-.31-1.14-.6-1.7-.93-.6-.36-.67-.63-.44-1.29.19-.53.37-1.06.54-1.6.41-1.32.84-2.64,1.22-3.97.35-1.21.68-2.42.98-3.64.21-.86.14-1.8.78-2.54.13-.15.16-.37.1-.56-.19-.58,0-1.08.25-1.58.41-.82.54-1.69.47-2.59-.1-1.31-.4-2.59-.71-3.85-.39-1.54-.37-3.18-1.11-4.64-.03-.06-.03-.13-.03-.19-.05-1.2-.35-2.36-.5-3.54-.09-.75-.2-1.5-.33-2.25-.18-1.06-.36-2.15-.33-3.22.03-1.1-.17-2.11-.59-3.1-.18-.42-.22-.8,0-1.2.27-.51.27-1.02.03-1.54-.26-.55-.36-1.11-.13-1.69.15-.37.3-.75.5-1.1.96-1.7,1.91-3.41,2.81-5.14.41-.79.55-1.61.37-2.48-.22-1.05-.67-2.02-1.01-3.02-.45-1.31-.91-2.63-1.54-3.86-.36-.7-.37-1.23.09-1.86.47-.64.79-1.37.94-2.16.03-.18.06-.42-.13-.53-.19-.11-.41-.07-.6.06-.12.08-.23.17-.34.27-.3.27-.6.54-.89.81-.34.33-.71.45-1.19.29-.45-.15-.59-.02-.55.48.03.38.03.74-.11,1.1-.21.53-.06.99.28,1.4.53.63.89,1.34,1.26,2.06.17.34.18.7.18,1.08-.02,1.64-.1,3.3.8,4.8.26.43.17.68-.26.97-.82.55-1.65,1.09-2.24,1.9-.5.68-1.13,1.16-1.91,1.5-.84.37-1.57.9-1.77,1.91-.04.2-.18.33-.37.42-1.09.49-2.35.15-2.99-.82-.17-.25-.19-.51,0-.76.31-.41.61-.83.94-1.23.29-.35.27-.66-.04-.98-.32-.33-.72-.54-1.13-.74-.63-.31-1.25-.63-1.88-.95-1.37-.72-2.78-1.37-4.27-1.8-.86-.25-1.72-.38-2.61-.49-1.05-.13-2.13-.07-3.15-.45-.34-.12-.68-.02-.9.3-.16.24-.13.5.03.73.23.3.54.4.9.29.12-.04.25-.06.37-.11.2-.08.42-.11.62-.07.89.17,1.78.31,2.6.74.62.33.64.71.07,1.11-1.17.82-2.21,1.78-3.07,2.93-.34.45-.67.91-1.12,1.26-.59.46-1.23.48-1.75,0-.3-.28-.61-.43-1-.19-.32.2-.51.49-.38.86.15.4.53.47.92.47.32,0,.64-.06.96.08.29.13.59.09.9.04,1.44-.26,2.76-.88,4.14-1.32.58-.19.7-.11.66.5-.06.93,0,1.84.33,2.72.06.16.08.35.1.52.03.4-.1.7-.54.79-.29.06-.55.18-.78.37-.26.21-.28.47-.14.74.26.5.97.6,1.3.15.65-.9,1.42-1.72,1.86-2.76.56-1.32,2.07-1.65,3.12-.69.14.13.28.27.4.42.43.53.43.79.03,1.33-.83,1.14-1.8,2.14-2.87,3.06-.53.46-.94,1.15-.72,1.85.26.86.23,1.64-.15,2.43-.05.1-.05.22-.08.33-.42,1.27-.41,2.57-.32,3.88.03.44-.14.67-.62.74-2.14.29-4.3.47-6.45.64-1.05.08-2.17.02-2.92-.98-.06-.09-.18-.14-.27-.19-.66-.38-1.02-.24-1.23.47-.02.08-.04.16-.07.23-.31,1.04-1.07,1.42-2.1,1.06-.21-.08-.42-.17-.66-.11-.24.06-.34.15-.12.39.53.59,1.22.87,1.96,1.08.51.14,1.01.05,1.43-.27,1.13-.88,2.36-.77,3.58-.36,2.62.89,5.27,1.12,7.99.51,1.56-.35,2.6-1.12,3.01-2.74.44-1.74.95-3.45,1.2-5.23.08-.58.32-.73.69-.38.76.74,1.68,1.2,2.64,1.57.34.13.46.41.42.73-.11.85-.1,1.71-.03,2.56.04.5-.12.9-.47,1.27-.59.62-1.04,1.37-1.06,2.23-.02.85-.35,1.52-.8,2.18-1.33,1.95-2.65,3.9-3.24,6.23-.35,1.39-.7,2.8-.4,4.24.16.76-.01,1.27-.68,1.67-.74.44-1.37,1.01-1.82,1.77-1.12,1.88-.97,3.83-.33,5.8.24.74.35,1.43,0,2.16-.12.24-.17.53-.19.8-.08.75-.36,1.44-.69,2.1-.36.73-.03,1.31.79,1.32.81,0,1.61,0,2.42,0,.56,0,.77-.3.58-.84-.05-.15-.13-.29-.21-.43-.42-.71-.46-1.44-.06-2.16.29-.52.24-.99-.09-1.5-.59-.9-.25-2.55.6-3.18,1.66-1.24,2.34-2.9,2.09-4.94-.07-.61.12-1.01.6-1.36.57-.42,1.09-.9,1.56-1.43,1.73-1.98,3.13-4.18,4.42-6.46.3-.53.57-1.08.87-1.62.07-.13.15-.34.34-.29.21.05.17.28.19.45.01.09,0,.19-.01.29-.04.68.03,1.35.1,2.02.12,1.05.46,2.04.71,3.06.18.77.45,1.47,1.03,2.03.48.46.49,1.16,0,1.59-1.72,1.46-2.14,3.37-2,5.5.05.78.26,1.56.09,2.36-.21.99-.36,2-.63,2.98-.26.96-.49,1.93-1.13,2.76-.4.52,0,1.15.66,1.16.94,0,1.87,0,2.81,0ZM56.85,46.39c-1.73.17-4.15,1.79-4.8,4.48-.57,2.34.51,4.85,2.69,6.1,2,1.15,5.16.99,6.54-.33-3.56.89-6.03-1.19-6.84-3.02-.48-1.08-.65-2.22-.39-3.4.37-1.66,1.28-2.92,2.79-3.83ZM51.62,71.53s-.03.19.09.26c.15.09.22-.09.31-.16.75-.57,1.37-1.26,1.87-2.05.17-.27.3-.36.6-.15.51.36,1.05.69,1.58,1.03.11.07.22.17.35.06.1-.09.06-.21.03-.32-.03-.12-.05-.26-.11-.36-.24-.35-.39-.75-.63-1.11-.2-.3-.33-.67.12-.97.19-.13.36-.31.56-.44.38-.24.75-.5.97-.92.11-.22.14-.33-.18-.37-.43-.05-.83.05-1.23.14-.72.15-1.21-.07-1.56-.7-.32-.58-.72-1.09-1.22-1.52-.07-.06-.09-.2-.2-.17-.12.04-.14.17-.15.28-.08.87-.38,1.69-.6,2.52-.06.24-.2.46-.48.49-.65.07-1.24.32-1.84.53-.19.07-.39.13-.39.37,0,.25.24.25.42.32.65.25,1.36.19,2.03.38.32.09.4.21.28.55-.26.72-.59,1.43-.59,2.31ZM31.02,89.48c.96-.63,1.65-1.44,2.23-2.32.19-.28.33-.28.57-.11.52.35,1.06.68,1.58,1.02.11.07.21.19.34.08.12-.1.08-.24.03-.36-.19-.47-.42-.91-.68-1.35-.22-.37-.44-.74.07-1.08.19-.13.35-.31.57-.43.4-.22.73-.52.95-.93.11-.21.1-.3-.18-.34-.43-.06-.83.03-1.23.12-.74.16-1.26-.09-1.61-.76-.31-.58-.77-1.06-1.22-1.53-.21-.22-.3-.04-.31.12-.05.84-.38,1.62-.55,2.43-.08.4-.29.65-.7.68-.64.05-1.18.4-1.79.55-.18.04-.29.17-.29.34,0,.17.17.21.31.25.12.04.25.05.37.09.59.23,1.23.16,1.82.35.21.07.4.17.26.4-.2.34-.24.73-.39,1.08-.21.5-.31,1.07-.18,1.69ZM38.35,64.19c.94-.68,1.67-1.44,2.21-2.36.19-.32.34-.28.6-.11.52.36,1.05.69,1.58,1.03.11.07.21.18.34.07.11-.09.04-.21,0-.31-.15-.49-.42-.92-.66-1.37-.14-.25-.4-.54-.17-.82.24-.29.49-.57.86-.75.37-.18.7-.46.89-.85.11-.22.13-.32-.19-.37-.46-.07-.89.08-1.33.14-.49.07-.94.06-1.26-.43-.42-.66-.86-1.31-1.45-1.83-.07-.06-.09-.21-.21-.12-.07.05-.12.16-.13.25-.04.86-.4,1.65-.57,2.48-.05.25-.2.47-.49.54-.54.12-1.09.22-1.6.49-.24.13-.67.07-.65.44.02.33.42.29.67.35.61.14,1.22.24,1.84.35.24.04.38.19.26.4-.19.31-.22.67-.36.99-.22.54-.37,1.11-.2,1.79ZM47.08,83.75c0-.05-.02-.13-.04-.21-.06-.27-.1-.54-.19-.8-.26-.76-.27-.76.48-1.12.19-.09.38-.17.58-.25.2-.08.36-.22.49-.39.12-.17.12-.28-.12-.35-.22-.06-.44-.07-.67-.07-.64,0-1.16-.17-1.36-.88-.12-.41-.31-.82-.58-1.16-.16-.2-.34-.32-.45.05-.17.55-.48,1.02-.74,1.52-.12.23-.28.36-.55.41-.48.09-.97.02-1.43.17-.15.05-.38.01-.42.19-.05.2.19.28.32.38.36.27.8.34,1.2.49.52.2.53.25.25.72-.26.44-.56.87-.68,1.38-.03.12-.19.24-.06.35.13.11.29,0,.4-.06.6-.35,1.2-.71,1.67-1.23.22-.24.36-.23.58,0,.33.35.59.77,1.01,1.04.08.05.16.12.26.06.08-.05.06-.14.06-.25ZM60.82,47.91c-.23.69-.57,1.3-.89,1.91-.11.2-.21.32-.47.34-.51.03-1.02.1-1.53.18-.15.02-.36.03-.4.21-.03.16.17.22.27.31.36.3.81.38,1.24.53.53.19.56.27.28.75-.25.43-.53.85-.66,1.34-.03.12-.17.25-.07.36.13.13.29.02.4-.05.56-.34,1.15-.67,1.61-1.15.29-.3.47-.27.73.02.28.33.52.7.91.93.08.05.14.16.25.11.13-.06.08-.2.06-.3-.05-.42-.13-.83-.31-1.22-.16-.36-.04-.58.28-.74.36-.18.74-.33,1.08-.53.16-.1.4-.24.33-.48-.06-.19-.31-.12-.47-.16-.15-.03-.32,0-.48-.01-.55-.05-1.02-.15-1.22-.8-.17-.54-.39-1.1-.94-1.52ZM67.37,71.67c-.1-.37-.18-.8-.33-1.21-.13-.38-.03-.62.32-.78.19-.08.38-.17.57-.26.22-.1.45-.18.61-.38.09-.11.25-.19.19-.36-.05-.15-.22-.11-.34-.13-.19-.03-.38-.02-.58-.03-.59-.03-1.1-.14-1.29-.84-.12-.45-.34-.87-.62-1.25-.06-.09-.09-.23-.23-.21-.13.02-.14.17-.17.27-.21.56-.48,1.09-.77,1.61-.12.21-.25.34-.51.36-.5.03-.99.09-1.48.16-.14.02-.33.04-.37.19-.05.19.15.27.27.36.37.27.82.37,1.24.52.38.13.53.29.27.7-.25.39-.45.82-.65,1.24-.08.16-.24.38-.08.52.14.12.33-.05.48-.14.53-.33,1.08-.65,1.51-1.11.24-.26.43-.27.67,0,.31.35.57.74.98.99.07.04.12.13.21.09.11-.05.08-.16.1-.31ZM39.87,67.27c-.26.75-.57,1.42-.95,2.05-.1.17-.2.26-.4.28-.5.04-.99.1-1.48.17-.17.02-.41.02-.44.23-.03.2.2.28.34.37.4.25.86.36,1.3.52.33.11.39.27.19.57-.3.44-.55.91-.74,1.41-.05.12-.18.29-.06.4.14.13.32,0,.44-.08.38-.23.76-.48,1.12-.75.87-.66.86-.66,1.61.18.2.22.49.58.7.46.23-.12.02-.53-.04-.81-.29-1.24-.29-1.24.87-1.77.28-.13.66-.31.62-.6-.05-.31-.48-.21-.75-.22-.98-.03-1.14-.13-1.5-1.02-.2-.49-.41-.97-.84-1.39ZM33.87,109.29c-.15.03-.34.05-.53.1-.23.07-.43.2-.39.47.03.24.2.39.45.44.33.07.65.03.95-.07.2-.07.38-.21.35-.46-.03-.23-.19-.37-.41-.42-.12-.03-.25-.03-.43-.05ZM36.17,111.95c.58.02.82-.18.94-.75.07-.3-.09-.37-.31-.27-.35.16-.69.35-1.02.54-.09.05-.21.13-.19.26.03.15.15.19.29.21.1,0,.19.02.29.02Z"/><path class="cls-1" d="M64.08,142.74c-.94,0-1.87,0-2.81,0-.67,0-1.07-.64-.66-1.16.64-.82.87-1.8,1.13-2.76.27-.98.42-1.99.63-2.98.17-.79-.03-1.57-.09-2.36-.14-2.13.28-4.04,2-5.5.5-.43.49-1.13,0-1.59-.59-.56-.85-1.26-1.03-2.03-.24-1.02-.59-2.01-.71-3.06-.08-.67-.15-1.35-.1-2.02,0-.1.02-.19.01-.29-.02-.17.02-.4-.19-.45-.19-.05-.27.16-.34.29-.3.53-.57,1.09-.87,1.62-1.29,2.28-2.69,4.48-4.42,6.46-.47.53-.99,1.01-1.56,1.43-.47.35-.67.75-.6,1.36.25,2.04-.43,3.7-2.09,4.94-.85.63-1.19,2.28-.6,3.18.33.5.38.97.09,1.5-.4.73-.36,1.45.06,2.16.08.14.16.28.21.43.19.54-.02.84-.58.84-.81,0-1.61,0-2.42,0-.81,0-1.15-.59-.79-1.32.33-.67.61-1.35.69-2.1.03-.27.08-.55.19-.8.35-.73.24-1.42,0-2.16-.64-1.96-.79-3.92.33-5.8.45-.75,1.08-1.33,1.82-1.77.67-.4.84-.91.68-1.67-.3-1.44.05-2.85.4-4.24.59-2.33,1.91-4.29,3.24-6.23.45-.66.78-1.33.8-2.18.02-.86.48-1.6,1.06-2.23.35-.37.51-.77.47-1.27-.07-.85-.08-1.71.03-2.56.04-.33-.08-.6-.42-.73-.97-.38-1.88-.84-2.64-1.57-.37-.36-.61-.2-.69.38-.25,1.78-.75,3.5-1.2,5.23-.41,1.62-1.46,2.39-3.01,2.74-2.72.61-5.37.38-7.99-.51-1.22-.42-2.46-.52-3.58.36-.41.32-.91.41-1.43.27-.74-.2-1.43-.49-1.96-1.08-.22-.24-.12-.33.12-.39.23-.06.44.03.66.11,1.03.36,1.78-.02,2.1-1.06.02-.08.04-.16.07-.23.21-.72.58-.86,1.23-.47.1.06.21.11.27.19.74,1.01,1.86,1.06,2.92.98,2.15-.17,4.31-.35,6.45-.64.48-.06.65-.3.62-.74-.09-1.31-.1-2.61.32-3.88.04-.11.03-.23.08-.33.37-.79.41-1.56.15-2.43-.21-.71.19-1.4.72-1.85,1.07-.92,2.04-1.92,2.87-3.06.4-.54.4-.81-.03-1.33-.12-.15-.26-.29-.4-.42-1.05-.96-2.56-.64-3.12.69-.44,1.04-1.21,1.86-1.86,2.76-.33.46-1.04.35-1.3-.15-.14-.26-.12-.53.14-.74.23-.19.49-.31.78-.37.43-.09.57-.39.54-.79-.01-.18-.03-.36-.1-.52-.34-.88-.39-1.79-.33-2.72.04-.61-.08-.68-.66-.5-1.38.44-2.7,1.06-4.14,1.32-.31.06-.61.09-.9-.04-.31-.14-.64-.08-.96-.08-.39,0-.77-.06-.92-.47-.13-.36.06-.66.38-.86.39-.24.7-.09,1,.19.51.48,1.16.46,1.75,0,.45-.36.79-.81,1.12-1.26.86-1.15,1.9-2.11,3.07-2.93.58-.41.56-.79-.07-1.11-.81-.43-1.71-.56-2.6-.74-.2-.04-.42-.02-.62.07-.12.05-.25.08-.37.11-.37.11-.67.01-.9-.29-.17-.22-.2-.49-.03-.73.22-.32.56-.42.9-.3,1.02.38,2.1.32,3.15.45.88.11,1.75.24,2.61.49,1.5.44,2.9,1.08,4.27,1.8.62.33,1.24.65,1.88.95.41.2.8.41,1.13.74.31.32.33.63.04.98-.33.4-.62.82-.94,1.23-.2.26-.17.52,0,.76.65.97,1.91,1.31,2.99.82.19-.09.33-.22.37-.42.2-1,.93-1.54,1.77-1.91.78-.34,1.41-.82,1.91-1.5.59-.81,1.42-1.35,2.24-1.9.42-.28.52-.53.26-.97-.9-1.5-.82-3.15-.8-4.8,0-.38,0-.74-.18-1.08-.37-.72-.73-1.44-1.26-2.06-.34-.4-.49-.87-.28-1.4.14-.35.14-.72.11-1.1-.04-.49.1-.63.55-.48.48.16.85.04,1.19-.29.29-.28.59-.55.89-.81.11-.1.22-.19.34-.27.19-.12.41-.16.6-.06.2.11.17.35.13.53-.15.79-.47,1.52-.94,2.16-.47.63-.45,1.16-.09,1.86.63,1.23,1.09,2.55,1.54,3.86.34,1.01.79,1.98,1.01,3.02.18.88.04,1.69-.37,2.48-.9,1.73-1.85,3.44-2.81,5.14-.2.35-.35.73-.5,1.1-.23.58-.13,1.14.13,1.69.24.51.24,1.03-.03,1.54-.21.4-.17.78,0,1.2.42.99.62,2,.59,3.1-.03,1.07.16,2.15.33,3.22.12.75.24,1.49.33,2.25.14,1.18.45,2.34.5,3.54,0,.06,0,.13.03.19.74,1.46.72,3.1,1.11,4.64.32,1.26.62,2.54.71,3.85.07.9-.07,1.77-.47,2.59-.25.5-.44,1-.25,1.58.06.19.03.41-.1.56-.64.74-.57,1.67-.78,2.54-.29,1.22-.63,2.43-.98,3.64-.39,1.33-.81,2.65-1.22,3.97-.17.54-.35,1.07-.54,1.6-.23.66-.16.92.44,1.29.55.33,1.13.62,1.7.93.25.14.5.29.75.45.13.09.29.18.22.38-.07.18-.24.13-.38.13-.97,0-1.94,0-2.91,0h0ZM65.64,122.23c.16.03.39-.09.58-.32.19-.24.4-.47.58-.71.3-.4.25-.67-.15-.97-.27-.2-.58-.33-.85-.54-.44-.34-1.03-.2-1.31.29-.1.17-.17.35-.34.46-.46.3-.31.69-.08,1,.35.45.84.73,1.58.78ZM60.59,117.8c.02-1.09-.62-1.69-1.66-1.55-1.41.18-1.47.34-.96,1.68.18.47.46.68.88.75.57.09,1.05-.22,1.56-.41.19-.07.18-.29.18-.47ZM57.24,121.56c.4-.12.88.08,1.24-.22.49-.4.49-.82.05-1.69-.21-.41-.58-.57-1.1-.47-1.5.29-1.62.57-.91,1.94.17.32.36.47.72.42ZM66.24,117.42c.04-.25-.15-.44-.4-.59-.16-.1-.34-.18-.5-.28-.78-.5-2.05.16-2.1,1.09,0,.03,0,.06,0,.1.08.34,1.33,1.2,1.69,1.16.41-.03,1.3-.99,1.3-1.47ZM47.76,101.34c.27,0,.66-.37.68-.64,0-.2-.13-.23-.28-.24-.44-.03-.9.24-.87.51.03.27.22.37.47.37ZM43.94,88.82c-.25.01-.51-.01-.51.32,0,.34.24.38.5.38.27,0,.58-.07.58-.37,0-.34-.35-.3-.56-.33ZM41.32,96.52c.19-.05.52.05.52-.27,0-.31-.26-.46-.56-.47-.27,0-.5.07-.5.39,0,.35.3.31.54.35Z"/><path class="cls-1" d="M56.85,46.39c-1.51.91-2.43,2.17-2.79,3.83-.26,1.18-.09,2.32.39,3.4.81,1.83,3.27,3.92,6.84,3.02-1.38,1.32-4.54,1.48-6.54.33-2.18-1.25-3.26-3.76-2.69-6.1.65-2.69,3.07-4.31,4.8-4.48Z"/><path class="cls-1" d="M51.62,71.53c0-.88.33-1.59.59-2.31.12-.34.05-.46-.28-.55-.66-.19-1.37-.12-2.03-.38-.18-.07-.41-.07-.42-.32,0-.23.2-.3.39-.37.61-.21,1.19-.46,1.84-.53.28-.03.42-.25.48-.49.22-.84.51-1.66.6-2.52.01-.11.03-.25.15-.28.12-.04.13.11.2.17.51.43.9.94,1.22,1.52.35.63.85.85,1.56.7.41-.08.8-.19,1.23-.14.33.04.3.15.18.37-.22.42-.59.67-.97.92-.2.13-.37.31-.56.44-.45.3-.32.66-.12.97.24.36.39.76.63,1.11.07.1.09.24.11.36.02.11.07.23-.03.32-.13.11-.24,0-.35-.06-.53-.34-1.07-.67-1.58-1.03-.29-.21-.43-.12-.6.15-.5.79-1.12,1.48-1.87,2.05-.09.07-.17.24-.31.16-.12-.07-.08-.23-.09-.26Z"/><path class="cls-1" d="M31.02,89.48c-.14-.63-.04-1.19.18-1.69.15-.35.19-.74.39-1.08.13-.23-.05-.33-.26-.4-.59-.19-1.24-.12-1.82-.35-.12-.05-.25-.06-.37-.09-.14-.04-.31-.08-.31-.25,0-.17.11-.3.29-.34.61-.14,1.15-.5,1.79-.55.41-.03.62-.28.7-.68.17-.81.5-1.59.55-2.43.01-.16.1-.33.31-.12.46.47.91.94,1.22,1.53.35.67.87.92,1.61.76.41-.09.8-.18,1.23-.12.28.04.29.12.18.34-.22.41-.56.71-.95.93-.22.12-.37.3-.57.43-.52.34-.3.71-.07,1.08.26.43.5.88.68,1.35.05.12.09.27-.03.36-.13.11-.24-.01-.34-.08-.53-.34-1.06-.67-1.58-1.02-.25-.17-.39-.17-.57.11-.59.89-1.27,1.69-2.23,2.32Z"/><path class="cls-1" d="M38.35,64.19c-.17-.67-.02-1.24.2-1.79.13-.33.17-.68.36-.99.12-.21-.02-.36-.26-.4-.61-.11-1.23-.21-1.84-.35-.25-.06-.65-.02-.67-.35-.02-.37.41-.31.65-.44.51-.27,1.06-.37,1.6-.49.29-.07.44-.29.49-.54.17-.83.53-1.62.57-2.48,0-.09.06-.2.13-.25.12-.09.15.06.21.12.59.53,1.03,1.18,1.45,1.83.32.5.77.5,1.26.43.44-.06.86-.2,1.33-.14.32.05.3.15.19.37-.2.39-.53.68-.89.85-.37.18-.62.46-.86.75-.23.28.03.56.17.82.24.44.51.87.66,1.37.03.11.1.22,0,.31-.13.11-.24,0-.34-.07-.53-.34-1.06-.68-1.58-1.03-.25-.17-.41-.21-.6.11-.54.92-1.28,1.67-2.21,2.36Z"/><path class="cls-3" d="M47.08,83.75c0,.11.02.2-.06.25-.1.06-.18,0-.26-.06-.41-.27-.68-.69-1.01-1.04-.22-.23-.36-.24-.58,0-.47.52-1.07.88-1.67,1.23-.12.07-.28.17-.4.06-.13-.11.03-.23.06-.35.12-.51.42-.94.68-1.38.28-.47.27-.52-.25-.72-.41-.15-.85-.23-1.2-.49-.13-.1-.37-.17-.32-.38.04-.17.27-.14.42-.19.46-.16.96-.09,1.43-.17.27-.05.43-.17.55-.41.26-.5.57-.98.74-1.52.11-.37.29-.25.45-.05.28.34.47.75.58,1.16.21.72.72.88,1.36.88.23,0,.45,0,.67.07.24.06.24.18.12.35-.13.17-.29.3-.49.39-.19.08-.39.16-.58.25-.75.36-.74.36-.48,1.12.09.26.13.53.19.8.02.08.03.16.04.21Z"/><path class="cls-3" d="M60.82,47.91c.56.42.77.98.94,1.52.2.65.67.75,1.22.8.16.01.33-.02.48.01.16.04.41-.03.47.16.07.24-.16.38-.33.48-.35.2-.72.36-1.08.53-.33.16-.44.39-.28.74.17.38.25.8.31,1.22.01.1.07.24-.06.3-.1.05-.17-.06-.25-.11-.39-.22-.63-.6-.91-.93-.25-.29-.43-.33-.73-.02-.46.48-1.04.8-1.61,1.15-.11.07-.27.18-.4.05-.11-.11.03-.24.07-.36.13-.49.41-.91.66-1.34.28-.48.25-.56-.28-.75-.42-.15-.88-.23-1.24-.53-.11-.09-.3-.15-.27-.31.04-.18.25-.18.4-.21.51-.08,1.02-.15,1.53-.18.25-.02.36-.14.47-.34.32-.61.66-1.21.89-1.91Z"/><path class="cls-3" d="M67.37,71.67c-.02.15,0,.26-.1.31-.09.04-.14-.05-.21-.09-.41-.25-.67-.64-.98-.99-.24-.27-.42-.26-.67,0-.44.46-.98.78-1.51,1.11-.14.09-.34.26-.48.14-.17-.15,0-.36.08-.52.2-.42.4-.85.65-1.24.26-.4.11-.57-.27-.7-.43-.14-.87-.25-1.24-.52-.12-.09-.32-.16-.27-.36.04-.15.23-.17.37-.19.49-.07.99-.13,1.48-.16.27-.02.39-.15.51-.36.3-.52.56-1.05.77-1.61.04-.1.04-.25.17-.27.14-.02.17.12.23.21.28.38.5.8.62,1.25.19.7.7.81,1.29.84.19,0,.39,0,.58.03.12.02.29-.02.34.13.06.17-.11.25-.19.36-.16.2-.39.28-.61.38-.19.09-.38.17-.57.26-.36.16-.46.39-.32.78.14.41.23.84.33,1.21Z"/><path class="cls-3" d="M39.87,67.27c.43.42.64.9.84,1.39.36.9.52.99,1.5,1.02.27,0,.7-.09.75.22.05.29-.34.47-.62.6-1.16.54-1.16.53-.87,1.77.06.27.27.69.04.81-.22.11-.51-.24-.7-.46-.76-.84-.74-.84-1.61-.18-.36.27-.74.52-1.12.75-.12.07-.3.21-.44.08-.12-.11.01-.28.06-.4.19-.5.44-.97.74-1.41.2-.3.14-.45-.19-.57-.44-.15-.9-.26-1.3-.52-.14-.09-.37-.17-.34-.37.03-.21.27-.2.44-.23.49-.07.99-.13,1.48-.17.21-.02.31-.11.4-.28.38-.63.69-1.3.95-2.05Z"/><path class="cls-1" d="M33.93,107.69c.69-.44,1.24-1.03,1.78-1.63.28-.31.47-.29.72.04.63.82,1.1,1.71,1.2,2.76.04.41.13.8.37,1.14.05.08.1.17.12.26.05.24.19.57-.1.69-.24.1-.33-.24-.45-.42-.09-.13-.18-.27-.28-.4-.31-.42-.64-.48-1.08-.22-.54.33-.53.32-.86-.23-.31-.51-.64-1-1.09-1.41-.11-.2-.22-.39-.33-.59ZM36.27,107.58c-.5-.01-.88.41-.89.9,0,.3.05.55.44.53.39-.01.87-.47.88-.87,0-.34-.14-.55-.43-.56Z"/><path class="cls-3" d="M33.93,107.69c.11.2.22.39.33.59-.58.4-1.22.65-1.89.84-.36.1-.43.25-.24.58.48.83.94,1.65,2,1.88.41.09.77.33.99.72.07.13.17.27.05.4-.13.14-.28.04-.39-.05-.24-.21-.52-.34-.81-.43-.96-.27-1.53-.99-2.07-1.73-.29-.39-.55-.79-.9-1.13-.17-.16-.24-.28.03-.37,1.01-.35,1.93-.88,2.9-1.3Z"/><path class="cls-3" d="M33.87,109.29c.17.02.3.02.43.05.22.06.38.19.41.42.03.25-.15.39-.35.46-.31.11-.62.14-.95.07-.25-.05-.42-.2-.45-.44-.04-.27.17-.4.39-.47.18-.06.38-.07.53-.1Z"/><path class="cls-3" d="M36.17,111.95c-.1,0-.19-.02-.29-.02-.14-.01-.27-.06-.29-.21-.02-.13.09-.2.19-.26.34-.19.67-.38,1.02-.54.23-.1.38-.03.31.27-.13.57-.37.77-.94.75Z"/><path class="cls-3" d="M65.64,122.23c-.74-.05-1.23-.33-1.58-.78-.24-.31-.38-.7.08-1,.17-.11.24-.3.34-.46.29-.5.87-.64,1.31-.29.27.21.58.34.85.54.4.3.45.57.15.97-.18.25-.38.48-.58.71-.19.23-.42.35-.58.32Z"/><path class="cls-3" d="M60.59,117.8c0,.18,0,.39-.18.47-.5.19-.99.51-1.56.41-.43-.07-.7-.28-.88-.75-.51-1.34-.45-1.5.96-1.68,1.04-.13,1.68.47,1.66,1.55Z"/><path class="cls-3" d="M57.24,121.56c-.36.05-.55-.1-.72-.42-.71-1.37-.59-1.65.91-1.94.53-.1.89.05,1.1.47.44.86.44,1.28-.05,1.69-.36.3-.84.1-1.24.22Z"/><path class="cls-3" d="M66.24,117.42c0,.48-.89,1.44-1.3,1.47-.36.03-1.61-.83-1.69-1.16,0-.03,0-.06,0-.1.05-.92,1.32-1.58,2.1-1.09.16.1.34.18.5.28.25.15.44.34.4.59Z"/><path class="cls-2" d="M47.76,101.34c-.25,0-.45-.1-.47-.37-.03-.27.43-.54.87-.51.16,0,.29.05.28.24-.01.27-.41.65-.68.64Z"/><path class="cls-2" d="M43.94,88.82c.22.03.56-.01.56.33,0,.31-.3.38-.58.37-.25,0-.5-.05-.5-.38,0-.34.26-.31.51-.32Z"/><path class="cls-2" d="M41.32,96.52c-.24-.04-.54,0-.54-.35,0-.32.23-.4.5-.39.31.01.57.17.56.47,0,.32-.33.21-.52.27Z"/><path class="cls-2" d="M36.27,107.58c.29.01.44.23.43.56-.01.4-.5.86-.88.87-.39.01-.44-.24-.44-.53.01-.49.39-.91.89-.9Z"/><text class="cls-5" transform="translate(80.26 92.37)"><tspan x="0" y="0">L</tspan><tspan class="cls-25" x="16.98" y="0">i</tspan><tspan class="cls-23" x="22.2" y="0">t</tspan><tspan class="cls-31" x="34.4" y="0">t</tspan><tspan class="cls-25" x="48.32" y="0">l</tspan><tspan x="53.54" y="0">e</tspan><tspan x="-.46" y="28.5">Du</tspan><tspan class="cls-23" x="38.71" y="28.5">k</tspan><tspan x="54.01" y="28.5">e</tspan></text><text class="cls-6" transform="translate(76.21 142.15)"><tspan class="cls-11" x="0" y="0">TH</tspan><tspan x="30.15" y="0">E</tspan><tspan class="cls-8" x="46.43" y="0">A</tspan><tspan class="cls-11" x="58.45" y="0">T</tspan><tspan class="cls-14" x="74.11" y="0">R</tspan><tspan class="cls-11" x="86.99" y="0">E</tspan></text><text class="cls-4" transform="translate(44.18 155.84)"><tspan class="cls-30" x="0" y="0">T</tspan><tspan class="cls-22" x="8.47" y="0">H</tspan><tspan class="cls-29" x="16.52" y="0">E </tspan><tspan class="cls-10" x="30.15" y="0">D</tspan><tspan class="cls-9" x="39.21" y="0">R</tspan><tspan class="cls-15" x="46.85" y="0">O</tspan><tspan class="cls-13" x="56.89" y="0">G</tspan><tspan class="cls-22" x="66.79" y="0">H</tspan><tspan class="cls-13" x="74.84" y="0">E</tspan><tspan class="cls-12" x="84.5" y="0">D</tspan><tspan class="cls-29" x="92.93" y="0">A </tspan><tspan class="cls-17" x="105.4" y="0">S</tspan><tspan class="cls-13" x="113.05" y="0">C</tspan><tspan class="cls-18" x="122.7" y="0">H</tspan><tspan class="cls-16" x="130.75" y="0">O</tspan><tspan class="cls-19" x="140.8" y="0">O</tspan><tspan class="cls-29" x="150.95" y="0">L</tspan><tspan class="cls-19" x="0" y="13.04">O</tspan><tspan class="cls-29" x="10.15" y="13.04">F </tspan><tspan class="cls-32" x="21.18" y="13.04">P</tspan><tspan class="cls-13" x="28.38" y="13.04">E</tspan><tspan class="cls-30" x="38.04" y="13.04">R</tspan><tspan class="cls-7" x="45.97" y="13.04">F</tspan><tspan class="cls-19" x="52.44" y="13.04">O</tspan><tspan class="cls-30" x="62.59" y="13.04">R</tspan><tspan class="cls-26" x="70.52" y="13.04">M</tspan><tspan class="cls-20" x="81.67" y="13.04">I</tspan><tspan class="cls-27" x="85.38" y="13.04">N</tspan><tspan class="cls-28" x="94.53" y="13.04">G </tspan><tspan class="cls-30" x="108.4" y="13.04">A</tspan><tspan class="cls-21" x="116.84" y="13.04">R</tspan><tspan class="cls-24" x="124.44" y="13.04">T</tspan><tspan class="cls-28" x="132.56" y="13.04">S</tspan></text></svg>